<?xml version="1.0" encoding="utf-8"?>
<svg viewBox="96.585 3.367 208.765 203.858" xmlns="http://www.w3.org/2000/svg">
  <g id="svgg">
    <path id="path0" d="M228.309 81.208 C 228.222 81.298,228.150 83.177,228.148 85.382 C 228.143 90.643,227.532 91.807,224.772 91.807 C 222.255 91.807,221.556 90.453,221.466 85.399 C 221.428 83.319,221.334 81.554,221.256 81.477 C 221.008 81.232,214.218 82.376,212.395 82.971 C 212.106 83.065,211.161 83.353,210.294 83.611 C 193.699 88.548,179.541 101.493,172.838 117.857 C 170.511 123.537,168.532 132.154,168.736 135.714 L 168.803 136.870 172.937 136.975 C 177.961 137.102,178.870 137.541,179.144 139.967 C 179.458 142.756,178.073 143.560,172.718 143.697 L 168.619 143.803 168.671 145.168 C 168.758 147.467,169.698 153.108,170.370 155.357 C 171.431 158.912,171.811 160.058,172.525 161.865 C 180.217 181.320,196.751 194.811,217.594 198.639 C 221.846 199.421,221.435 199.787,221.489 195.168 C 221.550 189.906,222.393 188.433,225.182 188.724 C 227.656 188.982,228.151 190.059,228.151 195.187 C 228.151 200.103,227.809 199.684,231.577 199.375 C 253.318 197.589,271.459 185.321,280.979 165.966 C 282.404 163.070,283.099 162.488,284.959 162.636 C 285.663 162.692,285.927 162.631,285.999 162.396 C 286.052 162.222,286.345 161.383,286.650 160.532 C 287.714 157.565,289.023 151.882,289.464 148.319 C 290.081 143.336,290.077 143.487,289.608 143.488 C 289.064 143.489,277.792 137.911,277.133 137.315 C 275.586 135.915,275.714 133.280,277.389 132.087 C 278.683 131.164,280.129 131.400,283.249 133.042 C 286.529 134.768,286.623 134.781,286.450 133.456 C 282.893 106.330,262.672 85.560,236.000 81.634 C 233.400 81.251,228.525 80.981,228.309 81.208 M226.470 100.945 C 226.805 101.118,227.344 101.607,227.668 102.032 L 228.256 102.803 228.313 117.473 L 228.370 132.143 229.191 132.661 C 234.747 136.168,235.115 144.006,229.885 147.423 C 229.220 147.858,228.607 148.308,228.522 148.424 C 228.437 148.540,228.366 153.607,228.365 159.685 L 228.361 170.736 227.884 171.445 C 226.424 173.611,223.571 173.633,222.238 171.488 L 221.744 170.693 221.691 159.559 C 221.656 152.235,221.564 148.400,221.423 148.353 C 214.940 146.185,214.504 135.774,220.763 132.581 L 221.628 132.140 221.686 117.488 L 221.744 102.836 222.245 102.133 C 223.251 100.722,225.057 100.215,226.470 100.945 M223.568 138.760 C 222.777 139.426,222.599 140.135,222.989 141.068 C 223.861 143.155,226.891 142.582,226.891 140.330 C 226.891 138.519,224.947 137.600,223.568 138.760 " stroke="none" fill="#3aba53" fill-rule="evenodd"/>
    <path id="path1" d="M113.235 4.126 C 104.992 5.389,99.545 10.918,98.550 19.030 C 98.234 21.613,98.225 186.048,98.541 188.761 C 99.420 196.298,104.503 201.953,111.765 203.477 C 114.192 203.986,192.636 203.991,194.853 203.483 C 197.083 202.971,199.055 202.167,200.521 201.172 C 201.001 200.846,201.476 200.672,201.668 200.752 C 212.014 205.045,225.430 207.039,234.874 205.687 C 242.568 204.585,246.829 203.496,252.458 201.190 C 266.840 195.300,278.693 184.482,286.004 170.573 C 288.448 165.924,288.469 164.137,286.092 162.900 C 284.073 161.850,282.559 162.758,280.979 165.967 C 271.449 185.328,253.318 197.589,231.577 199.375 C 227.809 199.684,228.151 200.103,228.151 195.187 C 228.151 190.059,227.656 188.982,225.182 188.724 C 222.393 188.433,221.550 189.906,221.489 195.168 C 221.435 199.787,221.846 199.421,217.594 198.639 C 196.751 194.811,180.217 181.320,172.525 161.865 C 171.811 160.058,171.431 158.912,170.370 155.357 C 169.698 153.108,168.758 147.467,168.671 145.168 L 168.619 143.803 172.718 143.697 C 178.073 143.560,179.458 142.756,179.144 139.967 C 178.870 137.541,177.961 137.102,172.937 136.975 L 168.803 136.870 168.736 135.714 C 168.532 132.154,170.511 123.537,172.838 117.857 C 179.541 101.493,193.699 88.548,210.294 83.611 C 211.161 83.353,212.106 83.065,212.395 82.971 C 214.218 82.376,221.008 81.232,221.256 81.477 C 221.334 81.554,221.428 83.319,221.466 85.399 C 221.556 90.453,222.255 91.807,224.772 91.807 C 227.489 91.807,228.016 90.807,228.151 85.399 L 228.256 81.197 230.971 81.247 C 257.414 81.726,281.168 103.059,286.006 130.672 C 286.795 135.176,286.988 135.010,283.249 133.042 C 278.752 130.675,276.050 131.358,276.050 134.864 C 276.050 136.872,276.426 137.167,283.403 140.625 C 290.329 144.058,291.216 144.182,292.954 141.965 C 295.742 138.409,301.278 130.731,301.467 130.159 C 302.146 128.100,299.763 125.666,297.659 126.269 C 296.565 126.583,296.086 127.018,294.515 129.128 C 292.926 131.260,292.437 131.429,292.437 129.844 C 292.437 129.549,292.293 128.645,292.118 127.836 C 291.942 127.027,291.713 125.940,291.608 125.420 C 290.416 119.513,287.031 111.338,283.345 105.462 C 267.988 80.982,238.679 69.312,210.924 76.627 C 209.827 76.916,208.787 77.165,208.613 77.179 C 208.335 77.203,208.286 73.709,208.193 47.269 L 208.088 17.332 207.436 15.505 C 205.439 9.911,201.351 6.095,195.588 4.447 C 194.512 4.139,115.167 3.830,113.235 4.126 M193.740 10.737 C 199.666 11.978,201.720 15.638,201.632 24.797 L 201.576 30.567 153.361 30.567 L 105.147 30.567 105.091 24.696 C 105.039 19.205,105.064 18.739,105.477 17.497 C 106.585 14.167,109.338 11.614,112.701 10.797 C 114.155 10.444,192.064 10.386,193.740 10.737 M137.231 17.491 C 134.301 18.430,134.525 22.910,137.543 23.723 C 139.353 24.210,168.853 23.927,169.853 23.412 C 172.217 22.196,172.104 18.735,169.664 17.627 C 168.651 17.167,138.635 17.041,137.231 17.491 M201.523 37.184 C 201.610 37.185,201.680 46.757,201.680 58.456 L 201.680 79.727 199.107 80.971 C 193.766 83.553,188.031 87.400,183.990 91.109 C 183.446 91.608,182.903 92.017,182.782 92.017 C 182.338 92.017,182.581 91.213,183.136 90.850 C 184.688 89.833,186.955 87.268,187.954 85.399 C 188.201 84.937,188.585 84.228,188.807 83.824 C 194.285 73.841,189.103 57.763,179.394 54.618 C 162.821 49.249,153.029 78.505,167.454 90.289 L 168.919 91.486 168.808 94.955 C 168.746 96.863,168.593 101.450,168.468 105.147 L 168.240 111.870 167.217 114.286 C 162.825 124.652,160.800 137.897,162.156 147.374 C 162.982 153.145,163.831 156.876,165.323 161.305 C 165.775 162.647,166.100 163.820,166.044 163.911 C 165.987 164.001,152.239 164.076,135.492 164.076 L 105.042 164.076 105.042 100.648 C 105.042 58.549,105.113 37.196,105.252 37.150 C 105.397 37.101,182.292 37.129,201.523 37.184 M124.895 57.761 C 123.715 58.242,123.069 59.418,122.813 61.555 C 122.441 64.645,121.815 69.642,121.641 70.903 C 121.529 71.712,121.333 73.225,121.206 74.265 C 121.079 75.305,120.886 76.799,120.778 77.586 C 120.099 82.510,124.272 88.518,128.782 89.112 L 129.307 89.181 129.307 92.437 C 129.307 94.228,129.188 99.053,129.042 103.160 C 128.897 107.267,128.683 113.507,128.567 117.026 C 128.451 120.545,128.258 126.261,128.137 129.727 C 127.489 148.260,127.502 148.991,128.491 151.016 C 131.507 157.191,140.937 157.341,143.834 151.261 C 145.072 148.662,145.054 150.478,144.112 123.004 C 142.947 89.043,142.947 89.076,143.842 89.076 C 144.726 89.076,147.289 87.581,148.570 86.319 C 151.387 83.544,152.141 80.827,151.475 75.854 C 150.910 71.632,150.708 70.035,150.317 66.702 C 149.485 59.600,149.429 59.347,148.480 58.419 C 146.917 56.891,144.202 57.468,143.388 59.500 C 143.021 60.419,143.027 60.718,143.488 64.181 C 143.812 66.613,144.086 68.760,144.750 74.074 C 145.657 81.329,145.075 82.558,140.529 82.985 C 138.335 83.191,137.591 83.564,136.944 84.784 L 136.478 85.663 136.731 94.144 C 136.871 98.809,137.077 105.084,137.190 108.088 C 137.302 111.092,137.536 118.561,137.708 124.685 C 137.881 130.809,138.132 138.479,138.266 141.729 L 138.509 147.639 138.033 148.309 C 137.118 149.594,135.548 149.666,134.541 148.470 L 133.972 147.794 134.111 144.433 C 134.188 142.584,134.342 138.283,134.455 134.874 C 134.567 131.465,134.757 125.699,134.878 122.059 C 134.998 118.419,135.186 112.558,135.296 109.034 C 135.406 105.509,135.590 99.820,135.705 96.389 C 136.148 83.188,136.202 83.384,131.960 82.986 C 129.938 82.796,129.188 82.506,128.334 81.584 C 127.059 80.205,127.042 79.638,128.046 71.806 C 128.451 68.652,128.932 64.764,129.117 63.167 L 129.452 60.262 128.959 59.305 C 128.204 57.838,126.393 57.150,124.895 57.761 M135.567 57.710 C 134.910 57.837,133.882 59.088,133.613 60.085 C 133.200 61.621,133.425 77.264,133.873 78.082 C 135.074 80.277,138.533 80.266,139.578 78.064 C 140.199 76.757,140.076 59.965,139.439 59.012 C 138.644 57.822,137.307 57.372,135.567 57.710 M177.881 60.958 C 183.487 63.049,186.199 73.011,183.190 80.462 C 182.003 83.401,180.419 85.122,177.367 86.789 C 175.960 87.557,175.808 88.393,176.042 94.034 C 176.239 98.762,176.229 99.085,175.866 99.580 C 175.231 100.444,175.150 100.052,175.234 96.534 C 175.452 87.485,175.487 87.663,173.193 86.394 C 162.475 80.461,166.828 56.835,177.881 60.958 M223.401 101.030 C 223.041 101.250,222.521 101.746,222.245 102.133 L 221.744 102.836 221.686 117.488 L 221.628 132.140 220.763 132.581 C 214.504 135.774,214.940 146.185,221.423 148.353 C 221.564 148.400,221.656 152.235,221.691 159.559 L 221.744 170.693 222.238 171.488 C 223.571 173.633,226.424 173.611,227.884 171.445 L 228.361 170.736 228.365 159.685 C 228.366 153.607,228.437 148.540,228.522 148.424 C 228.607 148.308,229.220 147.858,229.885 147.423 C 235.115 144.006,234.747 136.168,229.191 132.661 L 228.370 132.143 228.313 117.473 L 228.256 102.803 227.668 102.032 C 226.595 100.626,224.768 100.197,223.401 101.030 M226.277 138.849 C 227.445 140.018,226.913 141.950,225.311 142.352 C 224.464 142.564,223.359 141.954,222.989 141.068 C 222.129 139.009,224.701 137.273,226.277 138.849 M169.695 171.648 C 174.818 181.042,182.287 189.103,191.677 195.369 C 193.349 196.486,193.885 196.944,193.672 197.079 C 192.947 197.538,113.403 197.301,111.984 196.835 C 108.856 195.809,106.526 193.495,105.474 190.371 C 105.064 189.154,105.042 188.618,105.042 179.839 L 105.042 170.588 137.080 170.588 L 169.118 170.588 169.695 171.648 M150.105 174.152 C 140.507 175.692,138.740 188.896,147.585 192.983 C 155.032 196.423,163.194 189.616,161.329 181.521 C 160.224 176.728,155.084 173.353,150.105 174.152 M153.067 180.862 C 156.448 182.398,155.012 187.754,151.330 187.339 C 147.936 186.956,147.179 182.277,150.284 180.867 C 151.379 180.370,151.980 180.369,153.067 180.862 " stroke="none" fill="#3c1036" fill-rule="evenodd"/>
    <path id="path2" d="M 95.829 203.392 L 200.129 205.352 C 258.347 210.284 278.822 198.401 304.626 131.987 C 298.228 123.401 267.271 82.379 263.087 81.979 C 260.355 78.402 236.389 70.549 210.332 73.496 L 208.399 3.344 L 97.401 3.899 M 193.908 3.879 C 199.655 4.726 204.381 8.184 206.823 13.332 C 208.516 16.899 208.403 14.469 208.403 47.47 C 208.403 64.399 208.482 76.891 208.589 76.891 C 208.692 76.891 209.235 76.754 209.797 76.587 C 210.359 76.42 211.576 76.131 212.5 75.943 C 213.424 75.756 214.512 75.519 214.916 75.416 C 217.408 74.782 225.492 74.036 228.782 74.137 C 233.069 74.267 238.442 74.852 240.441 75.407 C 240.788 75.503 241.875 75.748 242.857 75.951 C 244.495 76.29 248.045 77.305 249.055 77.722 C 249.286 77.818 250.515 78.295 251.786 78.783 C 261.669 82.578 271.256 89.507 278.26 97.917 C 282.748 103.306 286.702 110.038 289.293 116.702 C 290.807 120.593 292.162 125.532 292.629 128.856 C 292.816 130.184 292.968 130.666 293.132 130.445 C 293.167 130.397 293.521 129.932 293.918 129.412 C 294.314 128.892 294.706 128.372 294.788 128.256 C 296.423 125.949 298.554 125.303 300.445 126.542 C 301.955 127.532 302.153 130.28 300.833 131.937 C 300.432 132.439 299.963 133.059 299.79 133.315 C 299.617 133.572 298.435 135.167 297.164 136.862 C 292.542 143.023 292.252 143.342 290.941 143.701 L 290.18 143.909 L 290.036 145.642 C 289.832 148.101 289.386 151.076 288.864 153.466 C 288.188 156.56 286.831 161.296 286.52 161.649 C 286.17 162.047 286.358 162.643 287.003 163.187 C 288.331 164.304 288.572 165.938 287.688 167.837 C 283.692 176.427 277.047 185.183 270.378 190.647 C 269.858 191.073 269.244 191.581 269.013 191.774 C 266.037 194.27 259.82 198.199 256.092 199.938 C 254.362 200.746 252.641 201.472 251.261 201.978 C 250.394 202.295 249.496 202.632 249.265 202.726 C 248.854 202.894 247.057 203.487 245.588 203.939 C 245.184 204.063 244.097 204.322 243.172 204.514 C 242.248 204.705 241.208 204.944 240.861 205.043 C 238.35 205.766 229.594 206.594 226.471 206.406 C 220.789 206.062 216.872 205.612 214.706 205.053 C 214.301 204.949 213.167 204.701 212.185 204.502 C 210.517 204.165 206.937 203.143 205.987 202.732 C 205.756 202.632 205.047 202.366 204.412 202.14 C 203.776 201.914 202.831 201.567 202.311 201.368 L 201.366 201.007 L 200.131 201.756 C 198.605 202.681 196.457 203.514 194.59 203.905 C 192.425 204.358 114.247 204.347 112.072 203.893 C 106.225 202.673 101.525 198.908 99.519 193.836 C 99.238 193.124 98.876 192.211 98.716 191.807 C 98.36 190.908 98.159 18.604 98.513 17.122 C 98.957 15.258 99.136 14.746 99.881 13.214 C 102.286 8.267 107.206 4.685 112.71 3.874 C 115.396 3.479 191.221 3.483 193.908 3.879 M 105.376 37.552 C 105.308 37.62 105.252 66.021 105.252 100.665 L 105.252 163.655 L 135.504 163.655 C 152.143 163.655 165.756 163.613 165.756 163.56 C 165.756 163.508 165.65 163.201 165.52 162.878 C 165.39 162.554 165.211 162.101 165.122 161.87 C 164.902 161.299 163.846 157.842 163.614 156.933 C 163.17 155.197 162.773 153.387 162.599 152.311 C 162.496 151.675 162.267 150.305 162.089 149.265 C 161.437 145.443 161.264 141.775 161.532 137.395 C 161.828 132.552 161.963 131.496 162.92 126.576 C 163.535 123.41 165.111 118.357 166.394 115.441 C 168.06 111.653 167.916 112.454 168.088 105.987 C 168.174 102.752 168.314 98.164 168.398 95.791 L 168.551 91.476 L 167.955 91.086 C 164.893 89.08 162.035 84.568 160.759 79.727 C 157.952 69.074 163.374 56.847 172.059 54.248 C 174.404 53.546 176.527 53.376 177.874 53.782 C 178.257 53.897 178.926 54.099 179.359 54.23 C 187.47 56.684 193.434 69.251 190.948 78.651 C 189.863 82.755 189.025 84.657 187.164 87.237 C 185.987 88.869 186.017 88.963 187.366 87.856 C 188.907 86.591 192.797 83.986 194.643 82.982 C 195.336 82.606 195.998 82.224 196.113 82.134 C 196.229 82.045 197.464 81.4 198.857 80.7 L 201.391 79.429 L 201.378 58.465 L 201.366 37.5 L 153.432 37.464 C 127.069 37.444 105.443 37.484 105.376 37.552 M 128.077 57.799 C 129.121 58.433 130.076 60.443 129.73 61.276 C 129.642 61.487 129.433 63.078 129.265 64.811 C 128.947 68.087 128.7 70.226 128.392 72.374 C 127.328 79.795 127.327 79.877 128.355 81.123 C 129.187 82.133 130.164 82.563 131.625 82.563 C 133.776 82.563 136.132 83.866 136.136 85.057 C 136.136 85.247 136.347 85.055 136.608 84.627 C 137.489 83.186 138.693 82.631 141.204 82.509 C 144.812 82.334 145.709 79.057 144.108 71.898 C 143.998 71.406 143.908 70.633 143.908 70.181 C 143.908 69.729 143.819 68.904 143.71 68.346 C 143.601 67.788 143.408 66.434 143.28 65.336 C 143.152 64.238 142.946 62.679 142.823 61.87 C 142.409 59.157 143.835 57.293 146.324 57.293 C 148.798 57.293 149.596 58.383 150.088 62.439 C 150.274 63.975 150.517 65.798 150.627 66.492 C 150.738 67.185 151.021 69.407 151.257 71.429 C 151.494 73.451 151.78 75.631 151.894 76.273 C 152.926 82.1 149.869 87.576 144.661 89.23 L 143.493 89.601 L 143.504 91.597 C 143.51 92.694 143.606 96.523 143.717 100.105 C 143.828 103.687 144.002 109.359 144.103 112.71 C 144.204 116.061 144.389 120.977 144.514 123.634 C 144.761 128.891 145.266 145.717 145.225 147.309 C 144.983 156.556 132.465 159.471 128.258 151.261 C 128.051 150.856 127.787 150.34 127.671 150.113 C 127.311 149.404 127.26 145.328 127.522 137.92 C 127.771 130.845 127.921 125.995 128.336 111.555 C 128.454 107.453 128.656 101.45 128.785 98.214 C 128.913 94.979 129.036 91.72 129.058 90.972 L 129.097 89.612 L 128.256 89.333 C 125.214 88.322 121.218 84.678 121.218 82.915 C 121.218 82.735 121.14 82.539 121.044 82.48 C 120.353 82.053 120.239 78.187 120.805 74.37 C 121.193 71.752 121.432 69.886 122.232 63.23 C 122.892 57.745 124.907 55.873 128.077 57.799 M 138.492 57.648 C 139.079 57.977 139.559 58.469 139.875 59.066 L 140.359 59.979 L 140.295 68.803 C 140.238 76.705 140.193 77.696 139.867 78.292 C 138.533 80.729 134.89 80.653 133.619 78.162 C 133.022 76.993 132.874 60.636 133.449 59.437 C 133.921 58.452 134.804 57.584 135.485 57.435 C 135.784 57.37 136.124 57.285 136.239 57.246 C 136.841 57.045 137.689 57.196 138.492 57.648 M 174.685 60.98 C 171.497 61.767 169.125 64.568 167.88 69.013 C 166.846 72.704 167.052 77.058 168.41 80.179 C 168.568 80.543 168.697 80.9 168.697 80.972 C 168.697 81.912 171.698 85.244 173.24 86.018 C 174.235 86.516 175.42 87.583 175.42 87.979 C 175.42 88.422 175.762 88.208 176.3 87.426 C 176.567 87.038 177.339 86.418 178.014 86.048 C 180.211 84.846 183.193 81.074 183.193 79.499 C 183.193 79.332 183.278 79.032 183.381 78.831 C 184.309 77.028 184.326 70.773 183.409 68.382 C 181.729 63.998 179.544 61.5 176.996 61.05 C 176.534 60.969 176.014 60.873 175.84 60.837 C 175.667 60.802 175.147 60.866 174.685 60.98 M 136.203 92.752 C 136.204 93.561 136.242 93.866 136.288 93.43 C 136.333 92.994 136.332 92.333 136.286 91.96 C 136.24 91.587 136.202 91.943 136.203 92.752 M 136.08 97.374 C 135.889 100.584 135.32 117.655 135.089 127.101 C 134.992 131.087 134.8 137.363 134.663 141.046 C 134.37 148.897 134.359 148.845 136.239 148.845 C 138.141 148.845 138.118 148.968 137.84 140.409 C 137.709 136.382 137.604 131.812 137.606 130.252 C 137.608 128.692 137.514 125.856 137.396 123.95 C 137.278 122.043 137.031 115.804 136.846 110.084 C 136.662 104.364 136.448 98.598 136.371 97.269 L 136.231 94.853 L 136.08 97.374 M 175.578 97.759 C 175.326 98.373 175.378 99.706 175.644 99.44 C 175.767 99.317 175.838 98.802 175.801 98.295 C 175.754 97.642 175.689 97.486 175.578 97.759 M 150.685 181.03 C 148.569 181.438 147.912 184.901 149.693 186.26 C 151.061 187.303 153.695 186.979 154.096 185.718 C 154.169 185.485 154.318 185.294 154.426 185.294 C 154.534 185.294 154.622 184.683 154.622 183.936 C 154.622 181.698 153.089 180.567 150.685 181.03" stroke="none" fill="#faf9f9" fill-rule="evenodd"/>
    <path id="path3" d="M133.771 3.729 C 144.546 3.759,162.177 3.759,172.952 3.729 C 183.726 3.699,174.911 3.674,153.361 3.674 C 131.812 3.674,122.996 3.699,133.771 3.729 M113.190 11.044 C 107.221 12.233,105.420 15.287,105.300 24.422 L 105.222 30.252 153.347 30.252 L 201.471 30.252 201.468 24.842 C 201.464 15.737,199.579 12.387,193.697 11.035 C 191.765 10.590,115.423 10.599,113.190 11.044 M169.936 17.453 C 172.685 19.129,172.486 22.563,169.565 23.848 C 168.280 24.413,137.984 24.304,136.796 23.730 C 134.135 22.445,134.177 18.785,136.870 17.366 C 137.991 16.775,168.957 16.857,169.936 17.453 M105.138 37.658 C 105.082 37.803,105.062 41.514,105.092 45.904 L 105.147 53.887 105.252 45.641 C 105.310 41.105,105.331 37.395,105.298 37.395 C 105.266 37.395,105.193 37.513,105.138 37.658 M122.753 37.552 C 124.001 37.589,125.987 37.589,127.165 37.552 C 128.343 37.514,127.321 37.484,124.895 37.484 C 122.468 37.484,121.505 37.515,122.753 37.552 M158.467 37.552 C 159.716 37.589,161.701 37.589,162.879 37.552 C 164.057 37.514,163.036 37.484,160.609 37.484 C 158.183 37.484,157.219 37.515,158.467 37.552 M194.170 37.552 C 195.412 37.589,197.445 37.589,198.687 37.552 C 199.929 37.515,198.913 37.484,196.429 37.484 C 193.944 37.484,192.928 37.515,194.170 37.552 M174.580 53.690 C 175.287 53.846,177.903 53.887,177.669 53.739 C 177.530 53.650,176.707 53.587,175.840 53.599 C 174.974 53.611,174.407 53.652,174.580 53.690 M166.688 57.405 L 166.071 58.088 166.754 57.471 C 167.130 57.132,167.437 56.825,167.437 56.788 C 167.437 56.626,167.264 56.769,166.688 57.405 M136.345 57.226 C 136.345 57.271,136.715 57.344,137.167 57.387 C 137.620 57.430,137.945 57.393,137.890 57.304 C 137.790 57.143,136.345 57.069,136.345 57.226 M140.222 68.277 C 140.222 72.957,140.250 74.871,140.283 72.532 C 140.317 70.192,140.317 66.363,140.283 64.023 C 140.250 61.683,140.222 63.598,140.222 68.277 M142.700 60.819 C 142.702 61.282,142.745 61.446,142.796 61.185 C 142.846 60.923,142.844 60.545,142.791 60.344 C 142.739 60.143,142.698 60.357,142.700 60.819 M105.141 75.000 C 105.141 82.915,105.168 86.153,105.199 82.195 C 105.231 78.238,105.231 71.762,105.199 67.805 C 105.168 63.847,105.141 67.085,105.141 75.000 M174.475 60.924 C 174.210 61.038,174.171 61.105,174.370 61.105 C 174.543 61.105,174.874 61.024,175.105 60.924 C 175.370 60.811,175.409 60.744,175.210 60.744 C 175.037 60.744,174.706 60.825,174.475 60.924 M133.069 65.021 C 133.069 66.985,133.100 67.817,133.139 66.870 C 133.178 65.922,133.178 64.315,133.140 63.298 C 133.101 62.281,133.069 63.057,133.069 65.021 M171.100 62.868 L 170.483 63.550 171.166 62.933 C 171.541 62.594,171.849 62.287,171.849 62.251 C 171.849 62.088,171.675 62.231,171.100 62.868 M201.346 68.277 C 201.346 70.184,201.378 70.964,201.417 70.011 C 201.456 69.057,201.456 67.497,201.417 66.544 C 201.378 65.591,201.346 66.371,201.346 68.277 M129.055 66.176 C 129.055 66.812,129.094 67.072,129.142 66.754 C 129.190 66.436,129.190 65.916,129.142 65.599 C 129.094 65.281,129.055 65.541,129.055 66.176 M128.608 69.459 C 128.588 69.820,128.522 70.435,128.461 70.825 C 128.359 71.474,128.369 71.490,128.576 71.016 C 128.700 70.731,128.766 70.117,128.723 69.650 C 128.659 68.961,128.638 68.925,128.608 69.459 M160.153 71.744 C 160.154 72.553,160.192 72.858,160.237 72.422 C 160.283 71.986,160.282 71.324,160.236 70.951 C 160.189 70.578,160.152 70.935,160.153 71.744 M184.082 72.479 C 184.082 72.883,184.126 73.049,184.178 72.847 C 184.231 72.644,184.231 72.314,184.178 72.111 C 184.126 71.909,184.082 72.075,184.082 72.479 M191.254 73.950 C 191.254 75.163,191.289 75.659,191.331 75.053 C 191.374 74.446,191.374 73.453,191.331 72.847 C 191.289 72.240,191.254 72.736,191.254 73.950 M128.204 72.794 C 128.207 73.256,128.250 73.421,128.300 73.159 C 128.350 72.898,128.348 72.520,128.296 72.319 C 128.243 72.118,128.202 72.332,128.204 72.794 M151.309 72.689 C 151.309 73.093,151.352 73.259,151.405 73.057 C 151.458 72.855,151.458 72.524,151.405 72.321 C 151.352 72.119,151.309 72.285,151.309 72.689 M167.086 73.634 C 167.087 74.443,167.125 74.748,167.170 74.313 C 167.216 73.877,167.215 73.215,167.168 72.842 C 167.122 72.469,167.085 72.826,167.086 73.634 M120.847 73.950 C 120.847 74.354,120.890 74.519,120.943 74.317 C 120.996 74.115,120.996 73.784,120.943 73.582 C 120.890 73.380,120.847 73.545,120.847 73.950 M229.887 74.310 C 230.207 74.359,230.679 74.357,230.938 74.308 C 231.196 74.258,230.935 74.218,230.357 74.220 C 229.779 74.221,229.568 74.262,229.887 74.310 M160.153 75.735 C 160.154 76.544,160.192 76.849,160.237 76.413 C 160.283 75.978,160.282 75.316,160.236 74.943 C 160.189 74.570,160.152 74.926,160.153 75.735 M184.082 75.000 C 184.082 75.404,184.126 75.570,184.178 75.368 C 184.231 75.165,184.231 74.835,184.178 74.632 C 184.126 74.430,184.082 74.596,184.082 75.000 M219.698 74.728 C 219.959 74.779,220.337 74.777,220.538 74.724 C 220.739 74.672,220.525 74.630,220.063 74.633 C 219.601 74.635,219.437 74.678,219.698 74.728 M235.557 74.725 C 235.759 74.777,236.090 74.777,236.292 74.725 C 236.494 74.672,236.329 74.629,235.924 74.629 C 235.520 74.629,235.355 74.672,235.557 74.725 M127.780 75.420 C 127.780 75.825,127.823 75.990,127.876 75.788 C 127.929 75.586,127.929 75.255,127.876 75.053 C 127.823 74.850,127.780 75.016,127.780 75.420 M190.999 77.101 C 190.978 77.505,190.912 78.072,190.853 78.361 L 190.744 78.887 190.970 78.369 C 191.095 78.084,191.161 77.516,191.117 77.108 L 191.037 76.366 190.999 77.101 M120.431 77.416 C 120.433 77.878,120.476 78.042,120.527 77.781 C 120.577 77.520,120.575 77.142,120.522 76.941 C 120.470 76.740,120.429 76.954,120.431 77.416 M160.507 78.904 C 160.509 79.126,160.607 79.449,160.724 79.622 C 160.880 79.852,160.899 79.767,160.796 79.307 C 160.623 78.534,160.503 78.367,160.507 78.904 M190.571 79.447 C 190.557 79.640,190.492 79.971,190.425 80.182 C 190.311 80.547,190.317 80.548,190.544 80.193 C 190.677 79.987,190.742 79.656,190.690 79.458 C 190.604 79.132,190.593 79.131,190.571 79.447 M151.915 80.498 C 151.902 80.690,151.836 81.021,151.770 81.233 C 151.655 81.598,151.661 81.598,151.889 81.243 C 152.021 81.038,152.086 80.707,152.034 80.508 C 151.949 80.183,151.937 80.182,151.915 80.498 M189.741 82.132 C 189.618 82.485,189.562 82.773,189.617 82.773 C 189.759 82.773,190.155 81.682,190.051 81.578 C 190.004 81.530,189.864 81.780,189.741 82.132 M131.035 82.715 C 131.408 82.761,132.070 82.762,132.506 82.716 C 132.942 82.671,132.637 82.633,131.828 82.632 C 131.019 82.631,130.662 82.668,131.035 82.715 M139.859 82.715 C 140.232 82.761,140.893 82.762,141.329 82.716 C 141.765 82.671,141.460 82.633,140.651 82.632 C 139.842 82.631,139.486 82.668,139.859 82.715 M170.378 83.889 C 170.378 83.925,170.685 84.233,171.061 84.572 L 171.744 85.189 171.127 84.506 C 170.551 83.870,170.378 83.727,170.378 83.889 M123.634 86.555 C 124.086 87.017,124.502 87.395,124.560 87.395 C 124.618 87.395,124.296 87.017,123.845 86.555 C 123.393 86.092,122.977 85.714,122.919 85.714 C 122.861 85.714,123.183 86.092,123.634 86.555 M147.883 87.326 L 147.374 87.886 147.945 87.483 C 148.259 87.261,148.519 87.009,148.523 86.922 C 148.534 86.664,148.418 86.736,147.883 87.326 M186.134 88.340 C 185.863 88.629,185.710 88.866,185.794 88.866 C 185.879 88.866,185.683 89.110,185.358 89.409 C 184.778 89.943,184.782 89.943,185.562 89.379 C 185.999 89.065,186.306 88.757,186.245 88.696 C 186.184 88.635,186.290 88.411,186.482 88.200 C 187.012 87.614,186.697 87.741,186.134 88.340 M136.206 89.811 C 136.207 90.735,136.244 91.087,136.289 90.593 C 136.333 90.099,136.332 89.343,136.287 88.913 C 136.242 88.482,136.206 88.887,136.206 89.811 M165.966 89.391 C 166.358 89.795,166.726 90.126,166.784 90.126 C 166.842 90.126,166.568 89.795,166.176 89.391 C 165.784 88.986,165.417 88.655,165.359 88.655 C 165.301 88.655,165.574 88.986,165.966 89.391 M143.351 91.176 C 143.351 92.159,143.387 92.560,143.431 92.069 C 143.475 91.578,143.475 90.775,143.431 90.284 C 143.387 89.793,143.351 90.194,143.351 91.176 M183.527 90.863 C 183.191 91.152,182.959 91.432,183.012 91.485 C 183.109 91.582,184.244 90.613,184.244 90.433 C 184.244 90.268,184.158 90.320,183.527 90.863 M129.055 92.437 C 129.055 93.072,129.094 93.332,129.142 93.015 C 129.190 92.697,129.190 92.177,129.142 91.859 C 129.094 91.541,129.055 91.801,129.055 92.437 M168.555 92.857 C 168.555 93.608,168.593 93.915,168.639 93.540 C 168.686 93.164,168.686 92.550,168.639 92.174 C 168.593 91.799,168.555 92.106,168.555 92.857 M273.950 93.382 C 274.342 93.787,274.710 94.118,274.767 94.118 C 274.825 94.118,274.552 93.787,274.160 93.382 C 273.768 92.978,273.400 92.647,273.342 92.647 C 273.284 92.647,273.558 92.978,273.950 93.382 M175.448 95.483 C 175.433 97.180,175.493 97.901,175.630 97.689 C 175.876 97.309,175.883 94.968,175.642 93.803 C 175.511 93.166,175.463 93.575,175.448 95.483 M136.048 94.958 C 135.965 95.478,135.932 96.565,135.975 97.374 C 136.051 98.820,136.053 98.812,136.134 96.849 L 136.215 94.853 136.345 96.849 L 136.474 98.845 136.493 96.954 C 136.517 94.602,136.276 93.521,136.048 94.958 M128.859 97.689 C 128.859 98.902,128.894 99.399,128.936 98.792 C 128.979 98.185,128.979 97.193,128.936 96.586 C 128.894 95.980,128.859 96.476,128.859 97.689 M143.556 96.954 C 143.557 97.763,143.595 98.068,143.641 97.632 C 143.686 97.196,143.685 96.534,143.639 96.161 C 143.593 95.788,143.555 96.145,143.556 96.954 M105.141 110.924 C 105.141 118.839,105.168 122.077,105.199 118.120 C 105.231 114.162,105.231 107.686,105.199 103.729 C 105.168 99.772,105.141 103.009,105.141 110.924 M168.342 98.634 C 168.344 99.328,168.383 99.586,168.430 99.208 C 168.476 98.831,168.475 98.264,168.427 97.948 C 168.379 97.632,168.341 97.941,168.342 98.634 M175.889 98.529 C 175.889 98.934,175.932 99.099,175.985 98.897 C 176.038 98.695,176.038 98.364,175.985 98.162 C 175.932 97.960,175.889 98.125,175.889 98.529 M135.785 100.420 C 135.785 101.287,135.822 101.641,135.867 101.208 C 135.913 100.775,135.913 100.066,135.867 99.632 C 135.822 99.199,135.785 99.554,135.785 100.420 M136.625 101.891 C 136.625 102.757,136.662 103.112,136.708 102.679 C 136.753 102.245,136.753 101.536,136.708 101.103 C 136.662 100.670,136.625 101.024,136.625 101.891 M168.152 104.727 C 168.153 106.576,168.185 107.304,168.224 106.345 C 168.263 105.386,168.262 103.874,168.223 102.984 C 168.184 102.094,168.152 102.878,168.152 104.727 M128.645 103.361 C 128.645 104.343,128.681 104.745,128.725 104.254 C 128.769 103.763,128.769 102.960,128.725 102.468 C 128.681 101.977,128.645 102.379,128.645 103.361 M143.760 106.092 C 143.760 106.728,143.800 106.988,143.848 106.670 C 143.896 106.352,143.896 105.832,143.848 105.515 C 143.800 105.197,143.760 105.457,143.760 106.092 M128.444 109.244 C 128.444 110.804,128.477 111.442,128.517 110.662 C 128.558 109.882,128.558 108.606,128.517 107.826 C 128.477 107.046,128.444 107.684,128.444 109.244 M136.837 108.088 C 136.837 109.013,136.874 109.365,136.919 108.870 C 136.963 108.376,136.963 107.620,136.917 107.190 C 136.872 106.760,136.836 107.164,136.837 108.088 M135.571 108.403 C 135.571 109.154,135.610 109.462,135.656 109.086 C 135.703 108.711,135.703 108.096,135.656 107.721 C 135.610 107.345,135.571 107.652,135.571 108.403 M143.981 109.454 C 143.981 110.436,144.017 110.838,144.061 110.347 C 144.106 109.856,144.106 109.052,144.061 108.561 C 144.017 108.070,143.981 108.472,143.981 109.454 M135.377 114.601 C 135.377 116.218,135.410 116.852,135.450 116.010 C 135.490 115.167,135.490 113.843,135.450 113.069 C 135.409 112.294,135.377 112.983,135.377 114.601 M137.049 113.761 C 137.049 114.800,137.084 115.252,137.128 114.765 C 137.172 114.277,137.173 113.426,137.129 112.874 C 137.086 112.322,137.050 112.721,137.049 113.761 M128.216 117.752 C 128.218 118.445,128.257 118.704,128.304 118.326 C 128.350 117.948,128.349 117.381,128.301 117.066 C 128.253 116.750,128.215 117.059,128.216 117.752 M144.181 118.697 C 144.181 119.333,144.220 119.593,144.268 119.275 C 144.316 118.957,144.316 118.438,144.268 118.120 C 144.220 117.802,144.181 118.062,144.181 118.697 M135.147 120.588 C 135.147 121.224,135.186 121.484,135.235 121.166 C 135.283 120.848,135.283 120.328,135.235 120.011 C 135.186 119.693,135.147 119.953,135.147 120.588 M137.258 121.429 C 137.258 122.411,137.294 122.813,137.339 122.321 C 137.383 121.830,137.383 121.027,137.339 120.536 C 137.294 120.045,137.258 120.446,137.258 121.429 M128.018 122.164 C 128.018 123.319,128.054 123.765,128.096 123.155 C 128.139 122.544,128.138 121.599,128.095 121.054 C 128.052 120.509,128.017 121.008,128.018 122.164 M144.397 121.954 C 144.398 122.763,144.436 123.068,144.481 122.632 C 144.527 122.196,144.526 121.534,144.479 121.161 C 144.433 120.788,144.396 121.145,144.397 121.954 M137.455 124.895 C 137.457 125.473,137.497 125.684,137.546 125.365 C 137.594 125.045,137.593 124.573,137.543 124.314 C 137.493 124.056,137.453 124.317,137.455 124.895 M163.366 124.273 C 163.294 124.461,163.243 124.772,163.253 124.965 C 163.263 125.157,163.355 125.036,163.456 124.695 C 163.655 124.032,163.584 123.704,163.366 124.273 M144.622 128.571 C 144.622 130.362,144.655 131.095,144.694 130.200 C 144.733 129.304,144.733 127.839,144.694 126.943 C 144.655 126.048,144.622 126.780,144.622 128.571 M295.787 127.048 L 295.063 127.836 295.851 127.112 C 296.584 126.438,296.735 126.261,296.575 126.261 C 296.540 126.261,296.185 126.615,295.787 127.048 M134.959 130.252 C 134.959 132.043,134.991 132.776,135.030 131.880 C 135.069 130.985,135.069 129.519,135.030 128.624 C 134.991 127.728,134.959 128.461,134.959 130.252 M127.791 130.987 C 127.793 131.565,127.834 131.777,127.882 131.457 C 127.930 131.138,127.929 130.665,127.879 130.407 C 127.829 130.148,127.790 130.410,127.791 130.987 M105.141 146.639 C 105.141 154.554,105.168 157.791,105.199 153.834 C 105.231 149.877,105.231 143.401,105.199 139.443 C 105.168 135.486,105.141 138.724,105.141 146.639 M127.602 135.504 C 127.602 136.949,127.636 137.539,127.677 136.817 C 127.718 136.095,127.718 134.913,127.677 134.191 C 127.636 133.469,127.602 134.060,127.602 135.504 M134.733 134.979 C 134.734 135.788,134.772 136.093,134.817 135.657 C 134.863 135.221,134.862 134.559,134.815 134.186 C 134.769 133.814,134.732 134.170,134.733 134.979 M137.665 135.189 C 137.667 135.767,137.708 135.978,137.756 135.659 C 137.804 135.340,137.803 134.867,137.753 134.608 C 137.703 134.350,137.664 134.611,137.665 135.189 M144.824 136.134 C 144.824 137.232,144.859 137.681,144.902 137.132 C 144.946 136.584,144.946 135.685,144.902 135.137 C 144.859 134.588,144.824 135.037,144.824 136.134 M137.897 140.336 C 137.897 141.896,137.930 142.534,137.971 141.754 C 138.011 140.974,138.011 139.698,137.971 138.918 C 137.930 138.138,137.897 138.776,137.897 140.336 M161.426 141.071 C 161.427 142.574,161.460 143.160,161.501 142.376 C 161.541 141.591,161.541 140.362,161.500 139.645 C 161.459 138.927,161.426 139.569,161.426 141.071 M134.531 141.492 C 134.531 142.647,134.566 143.093,134.609 142.482 C 134.651 141.872,134.651 140.927,134.608 140.382 C 134.565 139.837,134.530 140.336,134.531 141.492 M127.378 142.227 C 127.378 142.978,127.416 143.285,127.463 142.910 C 127.510 142.534,127.510 141.920,127.463 141.544 C 127.416 141.169,127.378 141.476,127.378 142.227 M145.025 143.697 C 145.025 144.449,145.063 144.756,145.110 144.380 C 145.157 144.005,145.157 143.390,145.110 143.015 C 145.063 142.639,145.025 142.946,145.025 143.697 M290.051 143.859 C 289.996 143.948,289.891 144.728,289.817 145.592 C 289.451 149.882,288.009 156.882,286.748 160.489 C 286.529 161.117,286.394 161.674,286.447 161.727 C 286.501 161.781,286.589 161.693,286.643 161.532 C 287.190 159.894,287.512 158.813,288.009 156.934 C 289.105 152.796,289.702 149.482,290.034 145.693 C 290.115 144.769,290.287 143.943,290.416 143.858 C 290.585 143.747,290.581 143.703,290.401 143.701 C 290.263 143.699,290.106 143.770,290.051 143.859 M161.622 145.588 C 161.622 146.339,161.660 146.647,161.707 146.271 C 161.753 145.895,161.753 145.281,161.707 144.905 C 161.660 144.530,161.622 144.837,161.622 145.588 M134.301 146.639 C 134.301 147.159,134.342 147.371,134.392 147.111 C 134.442 146.851,134.442 146.426,134.392 146.166 C 134.342 145.906,134.301 146.119,134.301 146.639 M138.082 146.639 C 138.082 147.159,138.123 147.371,138.173 147.111 C 138.224 146.851,138.224 146.426,138.173 146.166 C 138.123 145.906,138.082 146.119,138.082 146.639 M129.832 153.466 C 130.224 153.871,130.592 154.202,130.650 154.202 C 130.707 154.202,130.434 153.871,130.042 153.466 C 129.650 153.062,129.282 152.731,129.224 152.731 C 129.167 152.731,129.440 153.062,129.832 153.466 M142.216 153.729 L 141.492 154.517 142.279 153.793 C 143.013 153.119,143.164 152.941,143.003 152.941 C 142.968 152.941,142.614 153.296,142.216 153.729 M116.875 163.813 C 120.783 163.845,127.117 163.845,130.950 163.813 C 134.784 163.781,131.586 163.755,123.845 163.755 C 116.103 163.755,112.966 163.781,116.875 163.813 M150.592 163.813 C 153.402 163.846,157.940 163.846,160.676 163.813 C 163.413 163.780,161.113 163.753,155.567 163.753 C 150.021 163.753,147.782 163.780,150.592 163.813 M105.255 179.674 C 105.257 186.532,105.323 188.797,105.546 189.635 C 106.459 193.063,109.056 195.625,112.830 196.821 C 113.756 197.115,193.353 197.166,193.242 196.873 C 193.204 196.771,192.158 196.011,190.919 195.184 C 182.340 189.460,174.191 180.578,169.511 171.849 L 169.004 170.903 137.128 170.850 L 105.252 170.797 105.255 179.674 M154.832 174.205 C 165.810 178.235,163.284 194.013,151.661 194.013 C 148.972 194.013,148.909 193.999,146.954 193.005 C 138.434 188.672,140.361 176.130,149.895 173.860 C 150.632 173.685,154.069 173.925,154.832 174.205 M271.520 189.548 L 270.903 190.231 271.586 189.614 C 272.223 189.039,272.365 188.866,272.203 188.866 C 272.167 188.866,271.860 189.173,271.520 189.548 M103.151 199.225 C 103.151 199.262,103.459 199.569,103.834 199.908 L 104.517 200.525 103.900 199.842 C 103.325 199.206,103.151 199.063,103.151 199.225 M113.498 204.142 C 113.816 204.190,114.336 204.190,114.653 204.142 C 114.971 204.094,114.711 204.055,114.076 204.055 C 113.440 204.055,113.180 204.094,113.498 204.142 M192.069 204.142 C 192.387 204.190,192.907 204.190,193.225 204.142 C 193.543 204.094,193.283 204.055,192.647 204.055 C 192.012 204.055,191.752 204.094,192.069 204.142 M231.355 206.237 C 231.557 206.290,231.888 206.290,232.090 206.237 C 232.293 206.184,232.127 206.141,231.723 206.141 C 231.318 206.141,231.153 206.184,231.355 206.237 M227.468 206.456 C 227.960 206.501,228.763 206.501,229.254 206.456 C 229.745 206.412,229.343 206.376,228.361 206.376 C 227.379 206.376,226.977 206.412,227.468 206.456 " stroke="none" fill="#a2c2d2" fill-rule="evenodd"/>
    <path id="path4" d="M112.395 3.992 C 108.188 4.575,103.642 7.503,101.119 11.256 C 100.236 12.569,99.859 13.347,100.212 13.129 C 100.327 13.058,100.421 12.888,100.422 12.750 C 100.426 12.372,102.159 10.135,103.514 8.761 C 105.612 6.632,108.513 5.057,111.555 4.394 C 113.596 3.949,193.126 3.949,195.168 4.394 C 200.782 5.617,205.474 9.847,207.374 15.401 C 207.698 16.347,207.967 16.971,207.973 16.787 C 208.008 15.647,206.458 12.408,204.888 10.340 C 202.841 7.643,200.096 5.754,196.218 4.373 L 194.853 3.887 154.202 3.859 C 131.843 3.844,113.030 3.904,112.395 3.992 M112.701 10.797 C 109.338 11.614,106.585 14.167,105.477 17.497 C 105.064 18.739,105.039 19.205,105.091 24.696 L 105.147 30.567 153.361 30.567 L 201.576 30.567 201.632 24.797 C 201.720 15.638,199.666 11.978,193.740 10.737 C 192.064 10.386,114.155 10.444,112.701 10.797 M193.697 11.035 C 199.579 12.387,201.464 15.737,201.468 24.842 L 201.471 30.252 153.347 30.252 L 105.222 30.252 105.300 24.422 C 105.420 15.287,107.221 12.233,113.190 11.044 C 115.423 10.599,191.765 10.590,193.697 11.035 M99.399 14.541 C 99.153 15.152,98.901 15.982,98.837 16.387 C 98.774 16.791,99.005 16.321,99.350 15.342 C 100.053 13.348,100.084 12.835,99.399 14.541 M136.870 17.366 C 134.177 18.785,134.135 22.445,136.796 23.730 C 137.984 24.304,168.280 24.413,169.565 23.848 C 172.486 22.563,172.685 19.129,169.936 17.453 C 168.957 16.857,137.991 16.775,136.870 17.366 M98.460 17.834 C 98.383 18.222,98.331 18.930,98.346 19.407 C 98.368 20.116,98.405 20.026,98.552 18.908 C 98.748 17.419,98.687 16.701,98.460 17.834 M169.664 17.627 C 172.104 18.735,172.217 22.196,169.853 23.412 C 168.853 23.927,139.353 24.210,137.543 23.723 C 134.525 22.910,134.301 18.430,137.231 17.491 C 138.635 17.041,168.651 17.167,169.664 17.627 M208.145 47.197 C 208.176 63.580,208.273 77.054,208.359 77.141 C 208.446 77.228,208.988 77.155,209.563 76.980 C 210.139 76.805,211.082 76.557,211.660 76.429 C 212.237 76.301,212.602 76.159,212.469 76.113 C 212.238 76.033,209.539 76.676,208.771 76.994 C 208.422 77.138,208.402 75.660,208.382 47.764 C 208.371 31.604,208.300 18.164,208.225 17.897 C 208.150 17.630,208.114 30.815,208.145 47.197 M105.252 37.150 C 105.137 37.188,105.042 37.283,105.042 37.360 C 105.042 37.437,126.738 37.476,153.256 37.447 L 201.471 37.393 201.471 58.479 L 201.471 79.564 198.619 80.968 C 194.262 83.114,190.361 85.606,186.029 89.013 L 184.769 90.004 185.767 88.857 C 192.313 81.331,193.025 69.012,187.394 60.714 C 181.905 52.627,172.825 51.491,166.145 58.054 C 163.120 61.027,160.674 66.358,160.397 70.588 L 160.307 71.954 160.589 70.273 C 164.124 49.211,186.279 48.512,190.579 69.328 C 190.938 71.063,190.938 76.573,190.580 78.256 C 190.187 80.101,189.271 82.978,188.807 83.824 C 188.585 84.228,188.202 84.937,187.956 85.399 C 187.331 86.573,186.452 87.735,185.219 89.017 C 184.640 89.620,184.142 90.273,184.113 90.467 C 184.085 90.661,183.940 90.895,183.791 90.986 C 183.345 91.262,183.297 90.986,183.734 90.656 C 183.956 90.487,184.064 90.346,183.973 90.343 C 183.881 90.339,183.527 90.543,183.185 90.796 C 182.592 91.234,182.328 92.017,182.773 92.017 C 183.143 92.017,184.665 90.508,184.525 90.281 C 184.450 90.160,184.488 90.123,184.610 90.198 C 184.732 90.273,185.810 89.554,187.006 88.600 C 190.838 85.542,194.736 83.084,199.107 80.971 L 201.680 79.727 201.680 58.456 C 201.680 46.757,201.610 37.185,201.523 37.184 C 182.292 37.129,105.397 37.101,105.252 37.150 M105.128 57.248 C 105.128 59.212,105.159 60.044,105.198 59.096 C 105.237 58.149,105.237 56.542,105.199 55.525 C 105.160 54.508,105.128 55.284,105.128 57.248 M124.451 57.753 C 123.466 58.354,122.947 59.235,122.699 60.730 C 122.498 61.936,122.346 63.105,121.637 68.908 C 121.531 69.774,121.201 72.374,120.903 74.685 C 120.383 78.731,120.362 80.296,120.812 81.408 C 121.051 81.999,121.045 81.551,120.794 80.230 C 120.647 79.455,120.649 78.573,120.801 77.418 C 120.923 76.493,121.117 74.979,121.232 74.055 C 121.348 73.130,121.532 71.712,121.643 70.903 C 121.753 70.095,122.035 67.873,122.268 65.966 C 123.206 58.314,123.430 57.804,125.931 57.617 C 128.393 57.433,129.618 59.114,129.229 62.145 C 128.940 64.403,128.939 65.723,129.228 64.286 C 129.693 61.970,129.564 59.591,128.928 58.756 C 127.850 57.340,125.859 56.894,124.451 57.753 M135.508 57.556 C 135.303 57.686,135.590 57.716,136.349 57.645 C 137.745 57.514,138.730 57.950,139.439 59.012 C 140.076 59.965,140.199 76.757,139.578 78.064 C 138.832 79.636,136.354 80.256,134.914 79.230 C 133.504 78.226,133.515 78.301,133.447 69.174 C 133.379 60.178,133.425 59.722,134.515 58.455 C 135.100 57.776,135.120 57.716,134.669 58.007 C 133.263 58.914,133.206 59.323,133.199 68.509 C 133.193 77.492,133.224 77.783,134.309 78.935 C 135.510 80.210,137.386 80.369,138.769 79.315 C 140.155 78.257,140.126 78.485,140.126 68.599 L 140.126 59.656 139.619 58.852 C 138.827 57.598,136.568 56.886,135.508 57.556 M144.624 57.750 C 142.587 58.992,142.546 60.099,144.120 71.218 C 144.227 71.970,144.416 73.435,144.540 74.475 C 144.665 75.515,144.838 76.933,144.925 77.626 C 145.218 79.962,144.535 81.481,142.816 82.314 C 142.319 82.555,142.035 82.757,142.185 82.763 C 143.099 82.798,144.584 81.400,145.057 80.059 C 145.363 79.192,145.344 78.825,144.750 74.074 C 144.086 68.760,143.812 66.613,143.488 64.181 C 143.027 60.718,143.021 60.419,143.388 59.500 C 144.204 57.461,146.917 56.891,148.491 58.429 C 149.164 59.088,149.385 59.665,149.768 61.765 L 149.979 62.920 149.874 61.454 C 149.636 58.153,147.007 56.297,144.624 57.750 M173.845 60.764 C 170.452 61.983,166.956 67.518,167.042 71.534 C 167.056 72.194,167.120 72.037,167.341 70.798 C 169.584 58.243,180.413 57.274,183.774 69.328 C 184.203 70.868,184.252 76.163,183.850 77.626 C 182.659 81.960,180.733 84.831,178.147 86.129 C 177.110 86.649,176.050 87.553,176.050 87.917 C 176.050 88.661,175.548 88.581,175.129 87.770 C 174.805 87.144,174.371 86.740,173.529 86.284 C 170.169 84.463,168.073 81.178,167.335 76.576 C 167.106 75.148,167.061 75.038,167.041 75.845 C 166.948 79.492,169.915 84.579,173.193 86.394 C 175.487 87.663,175.452 87.485,175.234 96.534 C 175.150 100.052,175.231 100.444,175.866 99.580 C 176.229 99.085,176.239 98.762,176.042 94.034 C 175.808 88.393,175.960 87.557,177.367 86.789 C 182.149 84.177,184.446 79.942,184.446 73.739 C 184.446 65.478,179.062 58.889,173.845 60.764 M150.000 63.928 C 150.000 64.233,150.140 65.548,150.311 66.852 C 150.483 68.156,150.720 70.026,150.839 71.008 C 150.958 71.991,151.248 74.216,151.485 75.955 C 152.144 80.805,151.369 83.561,148.570 86.319 C 147.289 87.581,144.726 89.076,143.842 89.076 C 143.082 89.076,143.058 89.447,143.282 97.503 C 143.402 101.823,143.536 105.735,143.580 106.197 C 143.708 107.555,143.501 94.666,143.351 91.981 L 143.215 89.529 144.034 89.307 C 147.077 88.482,149.991 85.875,151.218 82.878 C 152.176 80.540,152.228 79.738,151.693 75.630 C 151.580 74.764,151.290 72.542,151.049 70.693 C 150.808 68.845,150.520 66.488,150.409 65.457 C 150.210 63.618,150.000 62.833,150.000 63.928 M128.405 69.013 C 127.783 73.903,127.666 75.178,127.932 74.160 C 128.226 73.033,129.044 66.346,128.960 65.754 C 128.919 65.467,128.670 66.933,128.405 69.013 M166.867 73.634 C 166.868 74.212,166.909 74.424,166.957 74.104 C 167.006 73.785,167.004 73.312,166.955 73.054 C 166.905 72.795,166.865 73.057,166.867 73.634 M160.133 73.739 C 160.133 74.144,160.176 74.309,160.229 74.107 C 160.282 73.905,160.282 73.574,160.229 73.372 C 160.176 73.170,160.133 73.335,160.133 73.739 M226.050 74.347 C 225.372 74.422,226.418 74.487,228.586 74.505 C 233.050 74.541,235.446 74.795,240.390 75.758 C 241.402 75.956,242.282 76.066,242.344 76.003 C 242.514 75.833,237.938 74.991,234.769 74.609 C 232.399 74.323,227.578 74.178,226.050 74.347 M221.324 74.596 C 217.155 75.086,213.282 75.723,213.049 75.957 C 212.895 76.111,213.319 76.066,214.946 75.756 C 217.071 75.352,219.411 75.036,222.269 74.768 C 223.598 74.643,224.724 74.503,224.772 74.455 C 224.907 74.324,222.964 74.403,221.324 74.596 M127.447 76.313 C 127.240 78.033,127.288 80.024,127.547 80.529 C 128.085 81.577,129.577 82.790,130.294 82.763 C 130.444 82.757,130.160 82.555,129.663 82.314 C 127.924 81.471,127.620 80.784,127.664 77.796 C 127.705 74.979,127.651 74.613,127.447 76.313 M160.322 76.210 C 160.271 77.853,161.728 83.241,162.406 83.919 C 162.517 84.029,162.322 83.340,161.975 82.387 C 161.230 80.345,160.957 79.271,160.608 76.996 C 160.403 75.664,160.344 75.501,160.322 76.210 M242.894 76.157 C 242.952 76.216,243.736 76.456,244.635 76.692 C 245.534 76.927,247.227 77.440,248.397 77.832 C 251.504 78.872,251.415 78.846,251.050 78.607 C 250.151 78.019,242.439 75.703,242.894 76.157 M251.476 78.848 C 251.536 78.914,252.376 79.305,253.342 79.718 C 270.850 87.212,283.442 100.990,290.119 119.958 C 290.587 121.287,290.911 122.043,290.839 121.639 C 290.720 120.967,289.313 116.858,288.861 115.861 C 288.756 115.630,288.248 114.475,287.732 113.294 C 282.053 100.295,271.681 89.153,258.550 81.946 C 256.394 80.763,251.102 78.446,251.476 78.848 M121.126 82.353 C 121.919 85.190,125.566 88.653,128.344 89.209 C 129.288 89.398,129.266 89.167,129.003 96.261 C 128.749 103.121,128.295 116.810,127.926 128.782 C 127.800 132.883,127.731 136.570,127.773 136.975 C 127.868 137.893,128.136 130.813,128.779 110.399 C 128.896 106.702,129.096 100.935,129.224 97.584 C 129.519 89.859,129.485 89.204,128.782 89.112 C 126.459 88.806,123.159 86.116,121.781 83.403 C 121.340 82.537,121.046 82.064,121.126 82.353 M132.180 82.986 C 134.062 83.166,135.085 83.693,135.581 84.739 C 136.011 85.645,136.009 85.600,135.874 92.857 C 135.806 96.468,135.825 98.090,135.919 96.744 C 136.008 95.473,136.108 93.015,136.141 91.282 L 136.200 88.130 136.361 92.647 C 136.449 95.131,136.622 99.764,136.745 102.941 C 136.867 106.119,137.071 112.121,137.197 116.280 C 137.324 120.439,137.477 123.889,137.539 123.948 C 137.670 124.073,137.457 114.285,137.183 107.668 C 137.078 105.126,136.877 99.118,136.737 94.317 L 136.481 85.588 136.958 84.739 C 137.606 83.586,138.406 83.168,140.310 82.985 C 141.853 82.837,141.869 82.831,140.730 82.802 C 138.417 82.745,136.734 83.713,136.421 85.281 L 136.284 85.966 136.010 85.157 C 135.455 83.520,134.054 82.745,131.749 82.802 C 130.616 82.831,130.634 82.838,132.180 82.986 M162.606 84.307 C 162.603 85.128,165.014 88.325,167.046 90.195 L 168.709 91.725 168.494 96.755 C 168.376 99.522,168.294 103.157,168.310 104.832 L 168.341 107.878 168.495 104.307 C 168.579 102.342,168.702 98.648,168.768 96.098 L 168.887 91.460 167.458 90.292 C 165.950 89.060,164.598 87.442,163.356 85.382 C 162.944 84.698,162.606 84.214,162.606 84.307 M105.129 92.962 C 105.129 95.042,105.160 95.864,105.199 94.790 C 105.237 93.715,105.237 92.013,105.198 91.008 C 105.160 90.003,105.129 90.882,105.129 92.962 M175.840 96.115 C 176.003 98.537,175.985 99.078,175.727 99.445 C 175.453 99.837,175.420 99.521,175.420 96.440 C 175.420 92.306,175.577 92.184,175.840 96.115 M135.432 104.832 C 135.336 107.432,135.290 110.079,135.329 110.714 C 135.369 111.350,135.480 109.743,135.576 107.143 C 135.672 104.543,135.719 101.896,135.679 101.261 C 135.639 100.625,135.528 102.232,135.432 104.832 M143.779 112.500 C 143.852 115.504,144.004 120.420,144.116 123.424 C 144.847 142.864,144.945 148.582,144.565 149.580 C 141.484 157.664,131.162 158.006,128.089 150.125 C 127.710 149.152,127.672 148.546,127.674 143.487 L 127.676 137.920 127.471 142.647 C 127.191 149.109,127.562 150.815,129.757 153.162 C 134.783 158.535,143.587 155.968,144.960 148.730 C 145.100 147.988,145.099 145.528,144.956 141.300 C 144.751 135.282,144.604 130.589,144.110 114.401 C 143.991 110.478,143.838 107.216,143.770 107.153 C 143.702 107.090,143.706 109.496,143.779 112.500 M168.110 109.769 C 168.068 111.592,168.011 111.796,166.514 115.464 C 165.141 118.829,164.435 120.902,164.768 120.588 C 164.830 120.530,165.174 119.634,165.534 118.596 C 165.893 117.557,166.661 115.604,167.240 114.254 C 168.288 111.812,168.293 111.791,168.224 109.839 L 168.154 107.878 168.110 109.769 M135.021 117.542 C 134.937 119.968,134.772 125.121,134.654 128.992 C 134.536 132.862,134.349 138.134,134.237 140.706 C 133.928 147.819,133.925 147.771,134.647 148.579 C 135.443 149.469,136.884 149.562,137.652 148.773 L 138.130 148.280 137.395 148.719 C 136.523 149.239,136.108 149.266,135.306 148.851 C 134.288 148.324,134.259 147.960,134.564 139.467 C 135.000 127.289,135.351 114.236,135.257 113.655 C 135.211 113.367,135.104 115.116,135.021 117.542 M164.418 121.150 C 163.841 123.053,163.029 126.360,163.047 126.737 C 163.060 127.025,163.151 126.882,163.281 126.366 C 163.398 125.903,163.770 124.496,164.107 123.239 C 164.444 121.981,164.678 120.910,164.627 120.859 C 164.576 120.808,164.482 120.939,164.418 121.150 M290.984 122.794 C 291.004 123.512,291.354 124.182,291.369 123.529 C 291.375 123.241,291.288 122.862,291.176 122.689 C 291.008 122.429,290.975 122.447,290.984 122.794 M291.393 124.184 C 291.385 124.336,291.675 125.796,292.118 127.836 C 292.293 128.645,292.437 129.549,292.437 129.844 C 292.437 131.419,292.927 131.259,294.477 129.178 C 296.168 126.909,296.350 126.734,297.424 126.351 C 298.156 126.090,298.171 126.068,297.632 126.060 C 296.882 126.048,295.622 127.202,294.223 129.182 C 293.081 130.796,292.913 130.914,292.772 130.200 C 292.721 129.940,292.467 128.592,292.207 127.206 C 291.812 125.105,291.420 123.646,291.393 124.184 M137.666 129.202 C 137.659 131.686,137.721 134.617,137.805 135.714 L 137.957 137.710 137.964 135.084 C 137.968 133.640,137.906 130.709,137.826 128.571 L 137.681 124.685 137.666 129.202 M105.128 128.782 C 105.128 130.804,105.160 131.631,105.198 130.620 C 105.237 129.609,105.237 127.954,105.198 126.943 C 105.160 125.932,105.128 126.759,105.128 128.782 M299.185 126.297 C 300.057 126.529,301.108 127.545,301.428 128.466 C 301.572 128.879,301.653 128.960,301.664 128.701 C 301.707 127.669,299.995 126.026,298.925 126.072 C 298.545 126.089,298.608 126.143,299.185 126.297 M162.815 127.353 C 162.815 127.415,162.681 128.258,162.516 129.227 C 161.785 133.540,161.663 135.141,161.662 140.441 C 161.661 145.560,161.748 146.770,162.395 150.630 C 162.502 151.266,162.646 152.150,162.716 152.595 C 162.785 153.040,162.895 153.351,162.960 153.286 C 163.025 153.222,162.931 152.290,162.752 151.217 C 161.986 146.620,161.886 145.357,161.899 140.441 C 161.912 135.488,162.075 133.346,162.737 129.451 C 162.919 128.375,163.012 127.437,162.942 127.368 C 162.872 127.298,162.815 127.292,162.815 127.353 M301.403 130.281 C 301.294 130.718,295.615 138.570,292.954 141.965 C 292.417 142.649,291.046 143.487,290.462 143.487 C 290.291 143.487,290.095 143.578,290.026 143.690 C 289.792 144.068,291.854 143.306,292.385 142.818 C 293.990 141.340,301.796 130.492,301.624 129.977 C 301.579 129.841,301.479 129.978,301.403 130.281 M138.103 143.634 C 138.119 146.166,138.209 148.009,138.313 147.905 C 138.417 147.801,138.406 145.879,138.286 143.451 L 138.076 139.181 138.103 143.634 M163.025 153.928 C 163.025 154.675,165.266 162.319,165.750 163.224 C 166.103 163.883,166.819 163.869,135.031 163.813 C 118.537 163.784,105.042 163.831,105.042 163.918 C 105.042 164.126,165.912 164.123,166.041 163.915 C 166.096 163.826,165.733 162.526,165.236 161.026 C 164.738 159.526,164.073 157.258,163.758 155.987 C 163.165 153.594,163.025 153.202,163.025 153.928 M105.109 162.185 C 105.109 162.936,105.147 163.243,105.194 162.868 C 105.241 162.492,105.241 161.878,105.194 161.502 C 105.147 161.127,105.109 161.434,105.109 162.185 M285.924 162.426 C 285.924 162.560,286.280 162.974,286.714 163.346 C 287.789 164.266,288.126 165.494,287.696 166.923 C 287.526 167.487,287.472 167.857,287.576 167.745 C 288.080 167.202,288.281 165.934,288.014 164.982 C 287.763 164.085,285.924 161.836,285.924 162.426 M286.029 170.531 C 280.939 180.335,272.987 189.151,263.708 195.275 C 262.301 196.204,261.685 196.718,262.553 196.241 C 269.038 192.671,278.097 183.782,283.023 176.155 C 284.651 173.635,287.525 168.337,287.356 168.169 C 287.320 168.133,286.723 169.196,286.029 170.531 M105.042 179.839 C 105.042 188.618,105.064 189.154,105.474 190.371 C 106.526 193.495,108.856 195.809,111.984 196.835 C 113.403 197.301,192.947 197.538,193.672 197.079 C 193.885 196.944,193.349 196.486,191.677 195.369 C 182.287 189.103,174.818 181.042,169.695 171.648 L 169.118 170.588 137.080 170.588 L 105.042 170.588 105.042 179.839 M169.511 171.849 C 174.191 180.578,182.340 189.460,190.919 195.184 C 192.158 196.011,193.204 196.771,193.242 196.873 C 193.353 197.166,113.756 197.115,112.830 196.821 C 109.056 195.625,106.459 193.063,105.546 189.635 C 105.323 188.797,105.257 186.532,105.255 179.674 L 105.252 170.797 137.128 170.850 L 169.004 170.903 169.511 171.849 M149.895 173.860 C 140.361 176.130,138.434 188.672,146.954 193.005 C 148.909 193.999,148.972 194.013,151.661 194.013 C 163.284 194.013,165.810 178.235,154.832 174.205 C 154.069 173.925,150.632 173.685,149.895 173.860 M155.041 174.634 C 165.910 178.672,162.243 194.783,150.673 193.828 C 142.882 193.184,139.096 183.848,144.085 177.580 C 146.550 174.483,151.240 173.221,155.041 174.634 M150.284 180.867 C 147.179 182.277,147.936 186.956,151.330 187.339 C 155.012 187.754,156.448 182.398,153.067 180.862 C 151.980 180.369,151.379 180.370,150.284 180.867 M153.937 181.780 C 155.364 183.208,154.951 185.799,153.151 186.698 C 150.029 188.257,147.065 184.586,149.300 181.929 C 150.447 180.566,152.651 180.495,153.937 181.780 M98.340 188.673 C 98.352 189.299,98.441 190.047,98.538 190.336 C 98.648 190.659,98.669 190.255,98.595 189.286 C 98.452 187.412,98.311 187.073,98.340 188.673 M98.752 191.131 C 98.732 191.553,99.588 193.989,99.837 194.223 C 99.995 194.370,100.013 194.307,99.899 194.013 C 99.810 193.782,99.518 192.978,99.250 192.227 C 98.983 191.476,98.759 190.982,98.752 191.131 M100.089 194.887 C 100.700 196.480,103.320 199.502,105.358 200.963 C 106.537 201.809,108.398 202.807,108.536 202.668 C 108.586 202.618,108.128 202.329,107.517 202.026 C 104.890 200.721,101.786 197.752,100.630 195.438 C 100.194 194.564,99.819 194.182,100.089 194.887 M260.924 196.998 C 260.404 197.308,258.750 198.201,257.248 198.983 C 255.746 199.765,254.600 200.408,254.702 200.412 C 254.975 200.424,260.943 197.317,261.555 196.844 C 262.294 196.272,262.033 196.336,260.924 196.998 M252.206 201.275 C 251.166 201.720,249.671 202.287,248.884 202.534 C 248.096 202.782,247.499 203.031,247.557 203.089 C 247.732 203.264,253.841 201.008,254.296 200.599 C 254.651 200.281,254.154 200.442,252.206 201.275 M200.513 201.181 C 200.057 201.491,199.283 201.924,198.792 202.143 C 197.954 202.516,197.687 202.731,198.062 202.731 C 198.151 202.731,198.961 202.312,199.861 201.799 L 201.497 200.866 202.481 201.296 C 204.911 202.356,211.753 204.521,212.201 204.371 C 212.321 204.331,211.129 203.936,209.553 203.492 C 207.238 202.840,204.035 201.726,201.668 200.751 C 201.476 200.672,200.997 200.850,200.513 201.181 M109.034 202.941 C 109.207 203.053,109.491 203.145,109.664 203.145 C 109.944 203.145,109.944 203.122,109.664 202.941 C 109.491 202.829,109.207 202.738,109.034 202.738 C 108.754 202.738,108.754 202.760,109.034 202.941 M196.849 202.923 C 196.675 203.022,195.825 203.263,194.958 203.460 C 192.632 203.988,114.257 204.003,111.786 203.476 C 110.133 203.123,109.499 203.178,110.852 203.557 C 113.023 204.164,117.195 204.221,155.147 204.156 L 193.803 204.091 195.437 203.628 C 197.142 203.145,198.069 202.744,197.479 202.744 C 197.306 202.744,197.022 202.825,196.849 202.923 M244.883 203.738 C 243.860 204.043,243.118 204.324,243.235 204.363 C 243.458 204.437,247.043 203.447,247.230 203.260 C 247.446 203.044,246.709 203.194,244.883 203.738 M212.623 204.491 C 212.762 204.618,215.878 205.203,218.285 205.554 C 225.587 206.618,232.747 206.476,240.083 205.120 C 241.366 204.882,240.623 204.823,239.160 205.045 C 234.488 205.756,232.911 205.909,229.307 206.000 C 224.873 206.111,217.709 205.467,214.286 204.648 C 213.346 204.423,212.455 204.339,212.623 204.491 M241.492 204.622 L 240.861 204.782 241.492 204.804 C 241.838 204.816,242.264 204.734,242.437 204.622 C 242.827 204.370,242.483 204.370,241.492 204.622 " stroke="none" fill="#a697a6" fill-rule="evenodd"/>
  </g>
</svg>